<mxfile host="Electron" modified="2023-12-17T19:50:49.693Z" agent="Mozilla/5.0 (Windows NT 10.0; Win64; x64) AppleWebKit/537.36 (KHTML, like Gecko) draw.io/22.1.2 Chrome/114.0.5735.289 Electron/25.9.4 Safari/537.36" etag="x3HoYR5ksszAlfEAp6fJ" version="22.1.2" type="device">
  <diagram name="Seite-1" id="oJKp1BGyLidputtZ7K4Z">
    <mxGraphModel dx="867" dy="-609" grid="1" gridSize="10" guides="1" tooltips="1" connect="1" arrows="1" fold="1" page="1" pageScale="1" pageWidth="827" pageHeight="1169" math="0" shadow="0">
      <root>
        <mxCell id="0" />
        <mxCell id="1" parent="0" />
        <mxCell id="N8TfKCUghalnAKzWb66I-1" value="" style="edgeStyle=none;orthogonalLoop=1;jettySize=auto;html=1;rounded=0;shape=link;" edge="1" parent="1">
          <mxGeometry width="80" relative="1" as="geometry">
            <mxPoint x="1090" y="2890" as="sourcePoint" />
            <mxPoint x="1090" y="1700" as="targetPoint" />
          </mxGeometry>
        </mxCell>
        <mxCell id="N8TfKCUghalnAKzWb66I-2" value="Frontend" style="text;strokeColor=none;align=center;fillColor=none;html=1;verticalAlign=middle;whiteSpace=wrap;rounded=0;fontSize=26;" vertex="1" parent="1">
          <mxGeometry x="1290.5" y="1760" width="120" height="60" as="geometry" />
        </mxCell>
        <mxCell id="N8TfKCUghalnAKzWb66I-3" value="Frontend" style="text;strokeColor=none;align=center;fillColor=none;html=1;verticalAlign=middle;whiteSpace=wrap;rounded=0;fontSize=26;" vertex="1" parent="1">
          <mxGeometry x="563.5" y="1750" width="232.69" height="60" as="geometry" />
        </mxCell>
        <mxCell id="N8TfKCUghalnAKzWb66I-4" value="" style="edgeStyle=none;orthogonalLoop=1;jettySize=auto;html=1;rounded=0;shape=link;" edge="1" parent="1">
          <mxGeometry width="80" relative="1" as="geometry">
            <mxPoint x="1840" y="1820" as="sourcePoint" />
            <mxPoint x="330" y="1820" as="targetPoint" />
          </mxGeometry>
        </mxCell>
        <mxCell id="N8TfKCUghalnAKzWb66I-6" value="&lt;div style=&quot;&quot;&gt;&lt;span style=&quot;background-color: initial;&quot;&gt;{max_token: 1000&lt;/span&gt;&lt;/div&gt;&lt;div style=&quot;&quot;&gt;messages:&lt;/div&gt;&lt;div style=&quot;&quot;&gt;&lt;span style=&quot;white-space: pre;&quot;&gt;&#x9;&lt;/span&gt;[&lt;br&gt;&lt;/div&gt;&lt;div style=&quot;&quot;&gt;&lt;span style=&quot;white-space: pre;&quot;&gt;&#x9;&lt;/span&gt;user: hi, my name is Nico,&lt;/div&gt;&lt;div style=&quot;&quot;&gt;&lt;span style=&quot;white-space: pre;&quot;&gt;&#x9;&lt;/span&gt;assistant: Hello Nico! How can I assist you today?,&lt;/div&gt;&lt;div style=&quot;&quot;&gt;&lt;span style=&quot;white-space: pre;&quot;&gt;&#x9;&lt;/span&gt;user: Can you tell me my name?.&lt;/div&gt;&lt;div style=&quot;&quot;&gt;&lt;span style=&quot;white-space: pre;&quot;&gt;&#x9;&lt;/span&gt;]&lt;br&gt;&lt;/div&gt;&lt;div style=&quot;&quot;&gt;n: 2&lt;/div&gt;&lt;div style=&quot;&quot;&gt;temperature: 0.2&lt;/div&gt;&lt;div style=&quot;&quot;&gt;}&lt;/div&gt;" style="text;strokeColor=none;align=left;fillColor=none;html=1;verticalAlign=middle;whiteSpace=wrap;rounded=0;" vertex="1" parent="1">
          <mxGeometry x="610" y="1880" width="370" height="180" as="geometry" />
        </mxCell>
        <mxCell id="N8TfKCUghalnAKzWb66I-7" value="&lt;div style=&quot;&quot;&gt;summarizeMessages:&lt;/div&gt;&lt;div style=&quot;&quot;&gt;&lt;br&gt;&lt;/div&gt;&lt;div style=&quot;&quot;&gt;system: &quot;Act as an assistant who summarizes everything to as short as possible&lt;span style=&quot;background-color: initial;&quot;&gt;&quot;&lt;/span&gt;&lt;/div&gt;&lt;div style=&quot;&quot;&gt;user: &quot;Using a maximum of 500 tokens, summarize the following conversation:\n&amp;lt;conversation&amp;gt;\nuser: hi, my name is nico \nAssistant: Hello Nico! How can I assist you today?\n&amp;lt;/converation&amp;gt;&quot;&lt;br&gt;&lt;/div&gt;" style="text;strokeColor=none;align=left;fillColor=none;html=1;verticalAlign=middle;whiteSpace=wrap;rounded=0;" vertex="1" parent="1">
          <mxGeometry x="1190" y="1880" width="370" height="180" as="geometry" />
        </mxCell>
        <mxCell id="N8TfKCUghalnAKzWb66I-8" value="Nico introduced himself as the user. Assistant greeted Nico and asked how it could help." style="text;strokeColor=none;align=left;fillColor=none;html=1;verticalAlign=middle;whiteSpace=wrap;rounded=0;" vertex="1" parent="1">
          <mxGeometry x="1640" y="1910" width="330" height="30" as="geometry" />
        </mxCell>
        <mxCell id="N8TfKCUghalnAKzWb66I-9" value="&lt;div style=&quot;&quot;&gt;createQuestion:&lt;/div&gt;&lt;div style=&quot;&quot;&gt;&lt;br&gt;&lt;/div&gt;&lt;div style=&quot;&quot;&gt;system: &quot;Act as an assistant who always create meaninful questions from conversations&lt;span style=&quot;background-color: initial;&quot;&gt;&quot;&lt;/span&gt;&lt;br&gt;&lt;/div&gt;&lt;div style=&quot;&quot;&gt;user: &quot;Use a maximum of 500 tokens.from the conversation below, what is the user asking about?:\n&amp;lt;conversation&amp;gt;\nuser: Nico introduces himself and asks for assistance. \nuser: can you tell me my name?\n&amp;lt;/converation&amp;gt;\n\nReconstruct the question as short as possible and change it to as you asking it.&quot;&lt;br&gt;&lt;/div&gt;" style="text;strokeColor=none;align=left;fillColor=none;html=1;verticalAlign=middle;whiteSpace=wrap;rounded=0;" vertex="1" parent="1">
          <mxGeometry x="2020" y="1880" width="370" height="180" as="geometry" />
        </mxCell>
        <mxCell id="N8TfKCUghalnAKzWb66I-10" value="&quot;What is Nico asking for assistance with, and can you tell him his name?&quot;" style="text;strokeColor=none;align=left;fillColor=none;html=1;verticalAlign=middle;whiteSpace=wrap;rounded=0;" vertex="1" parent="1">
          <mxGeometry x="2520" y="1950" width="250" height="30" as="geometry" />
        </mxCell>
        <mxCell id="N8TfKCUghalnAKzWb66I-11" value="AI Search" style="text;strokeColor=none;align=center;fillColor=none;html=1;verticalAlign=middle;whiteSpace=wrap;rounded=0;" vertex="1" parent="1">
          <mxGeometry x="2880" y="1940" width="60" height="30" as="geometry" />
        </mxCell>
        <mxCell id="N8TfKCUghalnAKzWb66I-12" value="&amp;nbsp;{&lt;div&gt;&amp;nbsp; role: &quot;system&quot;,&lt;/div&gt;&lt;div&gt;&amp;nbsp; content: &quot;You are a smart AI bot, that helps finding information. Limit your research within the chat context.&quot;,&lt;/div&gt;&lt;div style=&quot;&quot;&gt;}&lt;/div&gt;&lt;div style=&quot;&quot;&gt;&lt;br&gt;&lt;/div&gt;&lt;div style=&quot;&quot;&gt;&lt;div&gt;{&lt;/div&gt;&lt;div&gt;&amp;nbsp; role: &quot;user&quot;,&lt;/div&gt;&lt;div&gt;&amp;nbsp; content: &quot; R2P system. It is allowed to have a direct maintainence in VKOA and no transports are required for the same.\nAccess sequence 1 is based on the combination of customer account assignment group and material account assignment group. The account assignment group of customer comes from the account assignment group field from the sales area data of customer master unless overwritten in sales order (either at the header or line item). The material account assignment group comes from the material master. This access sequence is mainly used in case of DP90 profiles.\nAccess sequence 603 is widely used in R2P system, which defines the relationship with the customer. It is mainly used in case of internal trade between the different entities of Siemens. The account determination in this case happens based on the customer account assignment group.\nHowever, the customer account assignment group determined based on an entry in customer master is overwritten based on the below mentioned function module :\n/YOU/AD_ZAV_KTGRD_OWN_DIV\nThe function module checks whether the customer account assignment group obtained from the customer master needs to be overwritten by 09. The conditions based on which account assignment 09 is overwritten are as follows:\nThe function module checks the ARE of the customer vis-à-vis the ARE from where the sales order is being raised. ARE (trading partner) of the customer is obtained in the basic data view of the customer master while that of the system raising the order is obtained from the vendor / customer master linked to the org id.\nIt also checks the division of the customer vis-à-vis the division (used for reporting view) of the customer / vendor from where the sales order is raised. This information is obtained in the field corporate group available in the customer master.\nIf the ARE and division obtained for the both the entities match, then the account assignment group obtained from the customer master is overwritten with 09 following, which the account is determined based on access sequence 603.\nBelow is the example of one such internal trade transaction:\nPlant in Erlangen buys a product from Neustadt, which is used in further production / assembling process in Erlangen. The final product is then sold to the end customer through Erlangen. In this case, the customer sale from Neustadt to Erlangen accounts to an internal trade. \nIn this case, both the plants i.e. in Erlangen and Neustadt belongs to ARE 7411, while the corporate division obtained is SDF. As both these values match, the customer account assignment obtained from customer master is overwritten with 09.\nNote:\nMost customizing changes are received in this access sequence and hence requires modification in VKOA. These changes needs to be handled via incident and if approved the modification needs to be carried out manually.\nAlso note that whenever an entry is changed in access sequence 603, then the same entry needs to be maintained in a custom table Z2KORGID.\nIn all such cases, the account which is determined for posting is a 6 series account used for cost charging. Also in COPA document the entry IBV is updated in the custom characteristic TURNOVER LEVEL which indicates that it is a cost charging invoice.\n \nCheck program SSD data:\n/SIE/AD_Z2KE_CHECK_ORGID is the custom program which is used to check the missing org id&#39;s in R2P system against the one&#39;s which are available in central data base (SSD i.e. Siemens key data base). \nThe information of the program provides the link of SSD from where the data can be downloaded on the local machine.\nThe downloaded file then needs to be maintained in the selection screen for the program to compare the results between the ones maintained in R2P (in the table for org id) vis-à-vis the ones available in the file (SSD).\nProgram needs to be executed on U+1 as a month end closing step.\n.\nBusiness Cases\nProcess 1\nProcess 2\n\n[Valuation Areas [Valuation Grouping Code [Chart of Accounts\nFA] I i] [Vi\n207 2101[AUT\n20 2101JAUT\n2180] 2180] AUT |\n 01g -Compare SD Account Determination IDs with SSD\nDd\nIE\nFe name Auntie. i)\n| Parameters for C203 Comparison\nSaks Onto Fw]\nAccu on =)\n| Org-iDs mt So~desbenznzhing (will be tested net)\nCutzmer — EI —\n I we 57 wergAdEMen\n\n069-0, which in the Curvoeueieg eothalten 2:nd, ab a der 380 mick\n\nGente aRantn3 3 oe ee CH oe font bn em\n\nGey 02, i der SED van. 4, About WN Casting\nOT nm\nGey Ss aut. Mamet a i \&quot;puahert\&quot; in 20\n\nFund Smtr\n\nGursiory ~ geansere\n\nID ey\n\npristine]\n\noer 4020262 8 LEHE 0 CH ON conic de 550\n\nGrg-Tfr, the on the TD wander mind, star mien im gor testo\n\nOil 20008224 ED 12 VS CH LU fos oil seeds\nGruit Adriaan: 3 or he qm priser]\n Hd\nTATA\nTATA CONSULTANCY SERVICES\n&amp;nbsp; Display View \&quot;Accesses: Overview\nVEEL\nDer rere msence (HEFT) pest stmt\nOem mers\nBoron | Ono siens\nMi. [Tab sce serene o\nEmme B =\n| 5 : -\nwhere:\n Change View \&quot;Cust.Grp/MaterialGrp/AcctKey\&quot;: Overview\n\nV nem entres BED EE 4\n\n| mt ärs Ma atnaaiken\nog]\npEgmmag 3\nFs\n &#39;account assignment group (customer master data) account\n\nIC 50103000 third party domestic. 69494180\nOZ 50123000 third party foreign country 69494180\nFOS 50133000 Affiliates, Domestic 69494380\nToa. 50143000 affiliates, foreign 69494380\nfos 51113000 SAG other Div 69494580\nfos 51213000 SAG own Div other ARE 69494680\nfor 50103200 third party domestic public 69494120\nTos. 50123200 third party foreign public 69494120\nfoo 51303000 SAG own DIV own ARE 69494680\n (% | Display Customer: General Data\nFT TT SSA Tr pe ———\naT ene\nJ\n= — |\nes rere paves BE —1\n ar a\n\&quot;Similar to Sudan; /S1E/AD. ZAV XTED. OWN DIV series nn\nE% PHEP SH 1GRAB0E BQ ven (Een ewan Sion Bw\n[Ea\n\n3 RP\n\n200 mmm\n\nE EEE\n\ni a\n\na gar\n Dats Browser: Table Z2KORGID: 101 of 101 Hits\naa ayy ol aut haw\nERT Ta —\n\n20: onctioes sor\n\n20: Oon Soe\n\n20:00.0.1241 soe\n\non amiss ox\n\n20: au soe\n\n20: aim so\n\nne ars 3 ux\n Display Actus Line Items: List\n\nAR AVY EN CHE BE rd | GrMater your grave nam $500 dares. Bey owing cover anes\n\nstart. Indicator)\n\njira\n\nCove om Toner cnn nn:\n\nHumber of Ane toms. 7.240\n\nHosoi Tapia\n\n(05 Conca amrency SR\n\nCorey Wi RK, Fored ooo. (uni by Credo |SahwOrde&#39;\&quot; 5. Od Own OW reste TAC EWE UG) Lena t KOU (30) 5 BrwwE\n\nAm aR Fe WR was som ns a ors Doman ac 2280.10 228810+\n\nSR BRP 30920.6 MIST LOG. 08.0620.6 i we Ti Lema om ewe 1490,40 +\n\ni — X\n\nAM are wean ese wr isan 5 ea CN (JE) wm wn eam iam\n\nSR BR F 200.20:6 141857146 Las 0806306 1 &amp;lt;r La CHE) deme 0 ieee eae\n\nSR BRE 50920:6 HAD WOON 0300206 4 oe Ea CRE] L060 om 1306.39 min\n\nUM am) wae mine un 0500200 + wo w om A402 ww desm sans\n\nan an rere 4 ar u ce 3:08 ai mem neon\nwa a \&quot;0.3. 32.020.50 + 000 32.020. \&quot;32.020\n\nBm\n&quot;,&lt;/div&gt;&lt;div&gt;}&lt;/div&gt;&lt;div&gt;&lt;br&gt;&lt;/div&gt;&lt;div&gt;&lt;br&gt;&lt;/div&gt;&lt;div&gt;&lt;div&gt;{&lt;/div&gt;&lt;div&gt;&amp;nbsp; role: &quot;user&quot;,&lt;/div&gt;&lt;div&gt;&amp;nbsp; content: &quot;Document of Understanding \n(Account determination MM and SD) \nProject – Siemens AG Application Management Support\nPhase – Transition\nSystem R2P\nVersion 1.0\nTATA Consultancy Services Limited \nVersion Control\nVersion No.\nDate\nAuthor\nDescription of Change\n1.0\n21/7/2016\nAshish Ketkar\n2.0\n15/6/2020\nLove Kundnaney\nGeneral Review (No update required)\nTable 1 - Version Control\nEndorsement/Approval\nName\nRole (including Business process owner, if required)\nTable 2 - Endorsement/Approval\nContents\n1.System and Architecture4\n1.1System Landscape4\n1.2RICEF References4\n2.Organization &amp;amp; Functional Overview4\n2.1SAP Enterprise Structure4\n2.2Overarching Functions4\n2.3Functional Flow4\n3.Business Cases5\n3.1Process 15\n3.2Process 25\nSystem and Architecture\nSystem Landscape\nRICEF References\nRICEF id\nTechnical Name (Transaction/Object Name)\nSession ID\nReference to existing documentation\nZ2KSUBS\nFICO06\nSubstitution rule Z2KSUBS step 7 is used for Chemnitz to update the default account assignment through the table /SIE/AD_Z2KOKB9 for the two logical plants.\n/YOU/AD_ZAV_KTGRD_OWN_DIV\nFICO06\nThis function module is used to overwrite the account assignment group to 09 if ARE and division between the two parties involved is the same in case of internal trade.\n/YOU/AD_Z2KE_CHECK_ORGID\nFICO06\nThis program is used to check the missing org ids in the system so that the same can be updated in the ZORGID table.\nOrganization &amp;amp; Functional Overview\nSAP Enterprise Structure\nOverarching Functions\nFunctional Flow\nAccount determination MM:\nAcoount determination for MM related transactions is set based on standard configuration of OBYC mapping. The setup in the system is such that valuation area is always equal to plant. Valuation grouping code 2101 is commonly used for all plants in R2P environment, only subsidiary WEISS has valuation grouping code 2180.\nNote: Material type for Erlangen begins with 2, while in Neustadt standard material types are being used. In case of Chemnitz material type begins with C while that of Weiss begins with W.\nAny maintainence in OBYC is usually carried out by IT in consultation with the functional department. Thus, if any movement type is newly created, then the request for maintainence of OBYC settings would come to IT. These request then needs to be fulfilled alongwith the help of functional department who would provide the g/l account to be maintained.\nMapping of valuation area to valuation grouping code:\nMapping of material type to valuation class for plant Erlangen (GWE).\nMaterial Type\nAccount category reference\nValuation Class\nDiscription\nGWE\n \n2DOK\n2105\n2105\nTrading Goods\n2ERS\n2112\n2148\nunfinished goods\n2ERS\n2112\n2149\nfinished goods\n2HAL\n2112\n2148\nunfinished goods\n2HAL\n2112\n2149\nfinished goods\n2HAW\n2105\n2105\nTrading Goods\n2IBA\n2107\n2160\nmaterial for maintenance\n2KMA\n2112\n2148\nMaterial Configurable Unfinished Goods\n2KMA\n2112\n2149\nmaterial configurable finished goods\n2REF\n2112\n2148\nMaterial Configurable Unfinished Goods\n2REF\n2112\n2149\nmaterial configurable finished goods\n2ROH\n2101\n2111\nmaterial\n2ROH\n2101\n2121\nbigger materials\n2ROH\n2101\n2141\nLicences\n2RSV\n2105\n2105\nTrading Goods\n2SWD\n2112\n2148\nunfinished goods\n2SWD\n2112\n2149\nSoftware\n2VSL\n2112\n2148\nunfinished goods\n2VSL\n2112\n2149\nfinished goods\nMapping of material type to valuation class for plant Neustadt (EWN):\nMaterial Type\nAccount category reference\nValuation Class\nDiscription\nEWN\n \nHALF\n2112\n2112\nsubcontracting copper just EWN\nHALF\n2112\n2148\nunfinished goods\nFERT\n2112\n2149\nfinished goods\nHAWA\n2105\n2105\nTrading Goods\nHIBE\n2101\n2102\nauxiliary material with value just EWN\nKMAT\n2112\n2148\nMaterial Configurable Unfinished Goods\nKMAT\n2112\n2149\nmaterial configurable finished goods\nRAW\n2101\n2111\nmaterial\nRAW\n2101\n2115\nraw copper EWN\nRAW\n2101\n2116\nbulk goods EWN\nRAW\n2101\n2121\nbigger materials\nLOAN\n2101\n2111\nmaterial\nLOAN\n2101\n2115\nraw copper EWN\nLOAN\n2101\n2116\nbulk goods EWN\nLOAN\n2101\n2121\nbigger materials\nMapping of material type to valuation class for plant Chemnitz:\nMaterial Type\nAccount category reference\nValuation Class\nDiscription\nCHAL\n2112\n2148\nunfinished goods\nCFER\n2112\n2149\nfinished goods\nCHAW\n2105\n2105\nTrading Goods\nCKMA\n2112\n2148\nMaterial Configurable Unfinished Goods\nCKMA\n2112\n2149\nmaterial configurable finished goods\nCROH\n2101\n2111\nmaterial\nCROH\n2101\n2121\nbigger materials\nMapping of material type to valuation class for plant Weiss:\nMaterial Type\nAccount category reference\nValuation Class\nDiscription\nWDOK\n2105\n2105\nTrading Goods\nWHAL\n2112\n2148\nunfinished goods\nWHAL\n2112\n2149\nfinished goods\nWHAW\n2105\n2105\nTrading Goods\nWROH\n2101\n2111\nmaterial\nWROH\n2101\n2121\nbigger materials\nSubstitution in MM:\nIn case of bookings related to consumption postings wherein the account assignment is not found, the values are defaulted using OKB9 table.\nHowever, in case Chemnitz the default value needs to be updated separately based on whether the consumption posting is for logical plant A or logical plant B. These values are then updated using substitution rule Z2KSUBS step 7 wherein the default account assignment is updated based on the table /SIE/AD_Z2KOKB9.\nThe logic for the substitution is written in the following way:\nThe entry in the field city is checked from the table Z0FCEPC to determine the location whether it is for logical plant A or logical plant B.\nThe value thus obtained is then passed to the table /SIE/AD_Z2KOKB9 to get the cost center which is then substituted in the accounting document to be posted as a default account assignment category.\nTransaction type determination in MM:\nYH030 is the table where mapping of transaction types to movement types is carried out. The entry from this table for transaction type is defaulted when any entry is being booked. If no mapping entry is available in this table, then default value 9 is updated. The updation of transaction type is required for balance sheet accounts.\nAccount determination in SD:\nStandard settings for account determination in SD through VKOA is maintained in R2P system. It is allowed to have a direct maintainence in VKOA and no transports are required for the same.\nAccess sequence 1 is based on the combination of customer account assignment group and material account assignment group. The account assignment group of customer comes from the account assignment group field from the sales area data of customer master unless overwritten in sales order (either at the header or line item). The material account assignment group comes from the material master. This access sequence is mainly used in case of DP90 profiles.\nAccess sequence 603 is widely used in R2P system, which defines the relationship with the customer. It is mainly used in case of internal trade between the different entities of Siemens. The account determination in this case happens based on the customer account assignment group.\nHowever, the customer account assignment group determined based on an entry in customer master is overwritten based on the below mentioned function module :\n/YOU/AD_ZAV_KTGRD_OWN_DIV\nThe function module checks whether the customer account assignment group obtained from the customer master needs to be overwritten by 09. The conditions based on which account assignment 09 is overwritten are as follows:\nThe function module checks the ARE of the customer vis-à-vis the ARE from where the sales order is being raised. ARE (trading partner) of the customer is obtained in the basic data view of the customer master, while that of the system raising the order is obtained from the\n&quot;,&lt;/div&gt;&lt;div&gt;}&lt;/div&gt;&lt;/div&gt;&lt;div&gt;&lt;br&gt;&lt;/div&gt;&lt;div&gt;&lt;div&gt;{&lt;/div&gt;&lt;div&gt;&amp;nbsp; role: &quot;user&quot;,&lt;/div&gt;&lt;div&gt;&amp;nbsp; content: &quot;can you tell me my name?&quot;,&lt;/div&gt;&lt;div&gt;}&lt;/div&gt;&lt;/div&gt;&lt;/div&gt;" style="text;strokeColor=none;align=left;fillColor=none;html=1;verticalAlign=middle;whiteSpace=wrap;rounded=0;" vertex="1" parent="1">
          <mxGeometry x="3080" y="1940" width="1900" height="300" as="geometry" />
        </mxCell>
      </root>
    </mxGraphModel>
  </diagram>
</mxfile>
